<svg width="512" height="512" viewBox="0 0 512 512" fill="none" xmlns="http://www.w3.org/2000/svg">
  <defs>
    <linearGradient id="bg" x1="0" y1="0" x2="512" y2="512">
      <stop offset="0%" stop-color="#2563EB"/>
      <stop offset="100%" stop-color="#1D4ED8"/>
    </linearGradient>
  </defs>

  <!-- Fondo -->
  <rect x="32" y="32" width="448" height="448" rx="112" fill="url(#bg)"/>

  <!-- Corazon -->
  <path
    d="M256 356
       C180 300 128 250 128 180
       C128 130 165 96 212 96
       C236 96 250 105 256 120
       C262 105 276 96 300 96
       C347 96 384 130 384 180
       C384 250 332 300 256 356Z"
    fill="white"/>

  <!-- Linea financiera -->
  <path
    d="M170 250
       L215 220
       L250 240
       L295 185
       L340 145"
    stroke="#10B981"
    stroke-width="18"
    stroke-linecap="round"
    stroke-linejoin="round"/>

  <!-- Punta de flecha -->
  <path
    d="M318 145
       L340 145
       L340 167"
    stroke="#10B981"
    stroke-width="18"
    stroke-linecap="round"
    stroke-linejoin="round"/>
</svg>
